PathFileType	4	(X/Y/Z)	C:\Users\Basilio\Documents\Thesis Gigler\squatting_fais\c3dfiles\044\SLS_front_pre3\markers_experimental.trc
DataRate	CameraRate	NumFrames	NumMarkers	Units	OrigDataRate	OrigDataStartFrame	OrigNumFrames
200.000000	200.000000	4	60	mm	200.000000	0	1376
Frame#	Time	FHD			LBHD			RBHD			C7			T10			CLAV			LSHO			LUUPA			LMUPA			LDUPA			LLEP			LMEP			LUL			LRFIN			RSHO			RUPA1			RMUPA			RDUPA			RLEP			RMEP			RUL			RUFIN			LASI			RASI			USACR			LSACR			RSACR			LTHI1			LTHI2			LTHI3			LTHI4			LLFC			LMFC			LTIB1			LTIB2			LTIB3			LTIB4			LLMAL			LMMAL			LHEE			LMT1			LMT2			LMT5			RTHI			RTHI2			RTHI3			RTHI4			RLFC			RMFC			RTIB1			RTIB2			RTIB3			RTIB4			RLMAL			RHEE			RMT1			RMT2			RMT5			LRAD			RMMAL			
		X1	Y1	Z1	X2	Y2	Z2	X3	Y3	Z3	X4	Y4	Z4	X5	Y5	Z5	X6	Y6	Z6	X7	Y7	Z7	X8	Y8	Z8	X9	Y9	Z9	X10	Y10	Z10	X11	Y11	Z11	X12	Y12	Z12	X13	Y13	Z13	X14	Y14	Z14	X15	Y15	Z15	X16	Y16	Z16	X17	Y17	Z17	X18	Y18	Z18	X19	Y19	Z19	X20	Y20	Z20	X21	Y21	Z21	X22	Y22	Z22	X23	Y23	Z23	X24	Y24	Z24	X25	Y25	Z25	X26	Y26	Z26	X27	Y27	Z27	X28	Y28	Z28	X29	Y29	Z29	X30	Y30	Z30	X31	Y31	Z31	X32	Y32	Z32	X33	Y33	Z33	X34	Y34	Z34	X35	Y35	Z35	X36	Y36	Z36	X37	Y37	Z37	X38	Y38	Z38	X39	Y39	Z39	X40	Y40	Z40	X41	Y41	Z41	X42	Y42	Z42	X43	Y43	Z43	X44	Y44	Z44	X45	Y45	Z45	X46	Y46	Z46	X47	Y47	Z47	X48	Y48	Z48	X49	Y49	Z49	X50	Y50	Z50	X51	Y51	Z51	X52	Y52	Z52	X53	Y53	Z53	X54	Y54	Z54	X55	Y55	Z55	X56	Y56	Z56	X57	Y57	Z57	X58	Y58	Z58	X59	Y59	Z59	X60	Y60	Z60	

1	0	-250.9941864013672	1807.358520507813	-862.2080078125002	-382.3024902343751	1763.973022460938	-937.4570312500002	-420.7368469238282	1739.160766601563	-777.0389404296877	-421.8878479003907	1561.568115234375	-867.6841430664065	-388.2169799804689	1259.589111328125	-870.0169067382815	-276.2387390136719	1546.548461914063	-870.8037109375002	-329.2172546386719	1595.39013671875	-1015.169616699219	-161.3437194824219	1579.164916992188	-1109.209228515625	-135.8600769042969	1590.232055664063	-1066.853881835938	-92.00547027587892	1576.213134765625	-1107.634033203125	-34.45110702514649	1575.281372070313	-1095.70263671875	-43.39231491088868	1501.068115234375	-1083.888793945313	216.6475219726563	1592.886962890625	-975.5233154296877	231.9719390869141	1604.98974609375	-874.245056152344	-332.0117187500001	1571.163208007813	-706.9814453125001	-170.0061798095703	1542.523559570313	-614.0452880859376	-143.0255737304688	1562.814697265625	-652.8406982421876	-100.2841415405274	1544.173706054688	-613.9229125976564	-40.10900497436524	1550.471069335938	-625.3646240234376	-40.94439697265626	1471.837524414063	-646.0568237304689	213.9950714111329	1582.552734375	-743.3734741210939	229.222640991211	1575.10498046875	-857.3824462890627	-201.8957977294922	1080.201293945313	-987.7317504882815	-186.9711608886719	1062.659301757813	-771.0269165039065	-366.5746459960938	1117.422607421875	-864.4324340820315	-371.9591979980469	1084.779907226563	-890.9783935546877	-366.7485046386719	1087.253540039063	-833.7780761718752	-309.7223510742188	844.2049560546877	-1061.664672851563	-279.2978515625001	765.4111328125001	-1066.320556640625	-231.1219177246094	765.8553466796876	-1061.32666015625	-308.6486816406251	713.5289306640626	-1053.908447265625	-299.6350708007813	552.9188232421876	-1048.322998046875	-282.8038940429688	539.7158203125001	-927.2447509765627	-277.1149597167969	372.9712524414063	-990.1534423828127	-307.3848876953126	332.2890625000001	-1062.783447265625	-275.3682250976563	328.0002441406251	-1028.705932617188	-290.1707153320313	248.1044311523438	-1003.960754394531	-345.3179626464844	133.4711151123047	-1055.392822265625	-322.2684631347657	139.0882263183594	-972.5078125000002	-408.3898925781251	112.1098785400391	-1006.414489746094	-202.0545196533204	63.3920364379883	-986.3892211914065	-200.8536376953126	63.29852676391603	-1033.519287109375	-238.2651519775391	50.17165756225587	-1079.416625976563	-291.2440490722657	796.273376464844	-690.7973632812501	-252.6307067871094	740.3824462890626	-691.4536132812501	-221.1475830078126	741.5008544921876	-700.3684692382814	-283.0920410156251	662.5203857421876	-706.4705810546876	-293.5771484375001	545.8193969726564	-713.6395263671876	-307.3862304687501	539.9163208007814	-838.1475219726565	-257.6888427734376	415.9865112304689	-742.2366943359376	-327.6567382812501	348.0024414062501	-691.2076416015626	-287.2682495117188	339.1358642578126	-710.1876831054689	-280.5300903320313	288.1548767089844	-736.0239257812501	-350.6240844726563	137.9013214111328	-715.7778320312501	-412.1575927734376	111.908920288086	-757.3840332031251	-209.1167602539063	66.18951416015626	-790.2500610351565	-201.1633605957032	61.25193786621095	-754.0026245117189	-237.5710144042969	48.87131118774415	-698.7498168945314	nan	nan	nan	nan	nan	nan	
2	0.005	-251.0822753906251	1807.317138671875	-862.2685546875002	-382.2793579101563	1763.928833007813	-937.4774169921877	-420.8400878906251	1739.185668945313	-777.0172119140627	-421.968719482422	1561.578979492188	-867.725280761719	-388.3079528808595	1259.62255859375	-870.0625610351565	-276.3058471679688	1546.537719726563	-870.8384399414065	-329.3959655761719	1595.379150390625	-1015.199890136719	-160.902084350586	1579.32958984375	-1109.387329101563	-136.013900756836	1590.01513671875	-1066.83203125	-92.09139251708986	1576.14404296875	-1107.654052734375	-35.26639556884766	1575.956420898438	-1095.590454101563	-43.45034790039063	1501.0615234375	-1083.864501953125	216.5632934570313	1592.824340820313	-975.5500488281252	231.9029388427735	1604.926513671875	-874.237731933594	-332.1473999023438	1571.214233398438	-706.9913940429689	-170.0552368164063	1542.535400390625	-614.0808105468751	-143.0727996826172	1562.827758789063	-652.8772583007814	-100.3315811157227	1544.201049804688	-613.9647827148439	-40.24150085449219	1550.521362304688	-625.3873901367189	-40.99474334716798	1471.876953125	-646.1037597656251	213.9598999023438	1582.530639648438	-743.4133911132814	229.1013183593751	1575.1220703125	-857.3935546875002	-202.0263824462891	1080.201538085938	-987.7163085937502	-187.0938568115235	1062.642211914063	-771.0014648437502	-366.6294555664063	1117.432861328125	-864.4253540039065	-372.0937500000001	1084.789672851563	-891.0117797851565	-366.8232421875001	1087.239379882813	-833.7454833984377	-309.8232421875001	844.170837402344	-1061.671630859375	-279.3367614746094	765.4193725585939	-1066.260864257813	-231.1650543212891	765.8391723632814	-1061.298217773438	-308.6670227050782	713.5039062500001	-1053.909912109375	-299.6350708007813	552.9188232421876	-1048.322998046875	-282.8713989257813	539.7333984375001	-927.2464599609377	-277.1149597167969	372.9712524414063	-990.1534423828127	-307.3725585937501	332.2649841308594	-1062.784301757813	-275.3682250976563	328.0002441406251	-1028.705932617188	-290.1539611816407	248.1256408691407	-1003.996643066406	-345.2717590332032	133.4773864746094	-1055.39599609375	-322.3146362304688	139.1108551025391	-972.5059814453127	-407.5761108398439	111.1521301269532	-1007.075134277344	-201.6589508056641	63.38356399536134	-986.278991699219	-200.8594360351563	63.29397201538087	-1033.570190429688	-238.2651519775391	50.17165756225587	-1079.416625976563	-291.2597045898438	796.2664794921877	-690.8291015625001	-252.6523895263672	740.3778686523439	-691.4807128906251	-221.1572570800782	741.4927368164064	-700.3865356445314	-283.0914306640626	662.5228271484376	-706.4746704101564	-293.5737915039063	545.8336791992189	-713.6613159179689	-307.4089660644532	539.8995361328126	-838.1436767578127	-257.7255554199219	415.9766235351564	-742.2669677734376	-327.6749877929688	347.9716186523438	-691.1923217773439	-287.3341369628907	339.0984191894532	-710.1928100585939	-280.2809448242188	287.7863464355469	-736.0917358398439	-350.5960998535157	137.8813781738282	-715.8184204101564	-412.1629638671876	111.8989639282227	-757.3921508789064	-209.1558837890626	66.16218566894533	-790.2775878906252	-201.1655273437501	61.25026702880861	-754.0230102539064	-237.5661163330079	48.86802291870119	-698.7174072265626	nan	nan	nan	nan	nan	nan	
3	0.01	-251.2267150878907	1807.307250976563	-862.2421875000002	-382.3365783691407	1763.923461914063	-937.4909667968752	-420.8469238281251	1739.18798828125	-777.0242309570315	-422.0230712890626	1561.586547851563	-867.7192993164065	-388.4232177734376	1259.622436523438	-870.048034667969	-276.3058471679688	1546.537719726563	-870.8384399414065	-329.4184570312501	1595.37646484375	-1015.208862304688	-161.5419616699219	1579.123901367188	-1109.213134765625	-135.9214324951172	1590.19287109375	-1066.901123046875	-92.1559524536133	1576.142211914063	-1107.671264648438	-34.48277282714844	1575.234619140625	-1095.75634765625	-43.46289825439454	1501.061401367188	-1083.890625	216.9857177734376	1592.294799804688	-975.5314941406252	231.8800659179688	1604.910400390625	-874.2777099609377	-332.2193603515626	1571.247924804688	-707.0430908203126	-170.1120300292969	1542.546752929688	-614.0883789062501	-143.1188354492188	1562.895751953125	-652.8925170898439	-100.4200134277344	1544.192993164063	-613.9490356445314	-40.31921386718751	1550.544799804688	-625.4085693359376	-41.04852294921876	1471.842163085938	-646.1011962890626	213.9259643554688	1582.504760742188	-743.4525146484376	228.9688873291016	1575.08642578125	-857.410095214844	-202.1815185546876	1080.163940429688	-987.7225341796877	-187.2286071777344	1062.613037109375	-770.9891357421877	-366.7393798828126	1117.4345703125	-864.4329833984377	-372.1940307617188	1084.807861328125	-890.9702758789065	-366.9241027832032	1087.166381835938	-833.7644042968752	-309.8576354980469	844.1619873046877	-1061.6669921875	-279.4160156250001	765.4228515625001	-1066.314575195313	-231.1956024169922	765.8739624023439	-1061.35791015625	-308.6807556152344	713.4887084960939	-1053.903930664063	-299.7493286132813	552.8984985351564	-1048.35107421875	-282.9123535156251	539.7652587890626	-927.2249145507815	-277.1203918457032	372.9881896972657	-990.1514892578127	-307.4167480468751	332.2799987792969	-1062.816040039063	-275.3682250976563	328.0002136230469	-1028.705932617188	-290.1539611816407	248.1256713867188	-1003.996643066406	-345.2982482910157	133.5016021728516	-1055.439697265625	-322.3328857421876	139.1134643554688	-972.4880371093752	-408.3772888183595	112.1668395996094	-1006.40185546875	-201.687484741211	63.38087081909181	-986.287780761719	-200.8536376953126	63.2985305786133	-1033.519287109375	-238.2651519775391	50.17165756225587	-1079.416625976563	-291.3267517089844	796.2994384765627	-690.8257446289064	-252.6814117431641	740.3572387695314	-691.4967041015626	-221.2002563476563	741.5006713867189	-700.3669433593751	-283.1362304687501	662.5120239257814	-706.4896850585939	-293.6023559570313	545.8403320312501	-713.6868286132814	-307.4421081542969	539.9035644531251	-838.1182250976565	-257.7255554199219	415.9766235351564	-742.2669677734376	-327.6960754394532	348.0065307617188	-691.1671142578126	-287.2679138183594	339.2322998046876	-710.0722045898439	-280.3390502929688	287.7667236328126	-736.0553588867189	-350.6196594238282	137.8815612792969	-715.8063964843751	-412.1590270996095	111.8914489746094	-757.3932495117189	-209.1295471191407	66.17463684082033	-790.277282714844	-201.2035675048829	61.23228073120119	-754.0445556640626	-237.5958709716797	48.8486671447754	-698.7009887695314	nan	nan	nan	nan	nan	nan	
4	0.015	-251.5367584228516	1807.285522460938	-862.1814575195315	-382.6182250976563	1763.995727539063	-937.4883422851565	-420.8990173339845	1739.236572265625	-777.0697021484377	-422.124481201172	1561.621826171875	-867.7290039062502	-388.5027770996095	1259.636840820313	-870.0069580078127	-276.3100891113282	1546.563720703125	-870.8372802734377	-329.3421020507813	1595.374145507813	-1015.225646972656	-161.5546417236328	1579.113647460938	-1109.255981445313	-135.9865417480469	1590.215209960938	-1066.926513671875	-92.1406707763672	1576.14794921875	-1107.688354492188	-35.42604064941407	1575.917236328125	-1095.613891601563	-43.54583740234376	1501.072143554688	-1083.891723632813	217.011459350586	1592.290893554688	-975.5947265625002	231.8520965576172	1604.87255859375	-874.2900390625002	-332.2293395996094	1571.242309570313	-707.0374755859376	-170.2028961181641	1542.580078125	-614.1018676757814	-143.1441040039063	1562.9013671875	-652.9063110351564	-100.4696807861328	1544.228271484375	-614.0060424804689	-40.36759948730469	1550.566528320313	-625.4314575195314	-41.08242416381837	1471.850219726563	-646.1494750976564	213.875228881836	1582.515747070313	-743.4923706054689	228.9701690673829	1574.995971679688	-857.414733886719	-202.2064819335938	1080.259643554688	-987.7172851562502	-187.3524017333985	1062.638427734375	-770.9839477539065	-366.8251342773438	1117.431884765625	-864.4194335937502	-372.2790222167969	1084.788452148438	-890.9858398437502	-366.9710083007813	1087.131103515625	-833.8101806640627	-309.9540100097657	844.1834716796877	-1061.66455078125	-279.4486389160157	765.4241333007814	-1066.29638671875	-231.2854156494141	765.8908691406251	-1061.351318359375	-308.7796020507813	713.5059204101564	-1053.9169921875	-299.7403869628907	552.9162597656251	-1048.339599609375	-282.8856201171876	539.7054443359376	-927.285339355469	-277.1464843750001	372.9828491210938	-990.1148681640627	-307.4392700195313	332.3218078613282	-1062.813842773438	-275.3682250976563	328.0002136230469	-1028.705932617188	-290.2061462402344	248.1122283935547	-1003.992309570313	-345.2717590332032	133.4773864746094	-1055.39599609375	-322.2813110351563	139.0720520019532	-972.5139160156252	-407.5761108398439	111.1521301269532	-1007.075134277344	-201.6421661376954	63.38124847412111	-986.305603027344	-200.8536376953126	63.2985305786133	-1033.519287109375	-238.2687530517579	50.17559051513673	-1079.447265625	-291.3425292968751	796.2927856445315	-690.8580322265626	-252.7196044921876	740.4019165039064	-691.4910278320314	-221.2164306640626	741.5038452148439	-700.3991699218751	-283.1362304687501	662.5120239257814	-706.4896240234376	-293.6026000976563	545.8201904296876	-713.6930541992189	-307.4725341796876	539.8812255859376	-838.1187744140627	-257.7494506835938	415.9736633300782	-742.2534179687501	-327.6982727050782	348.0084533691407	-691.1688232421876	-287.3024291992188	339.1270751953126	-710.2087402343751	-280.3164978027344	287.7843627929688	-736.0699462890626	-350.6240539550782	137.8843078613282	-715.8024902343751	-412.1584472656251	111.876579284668	-757.3890991210939	-209.1592559814454	66.1637420654297	-790.2891235351565	-201.159652709961	61.25376892089845	-753.9948730468751	-237.5649719238282	48.87003707885744	-698.7138061523439	nan	nan	nan	nan	nan	nan	
